<?xml version="1.0" encoding="utf-8"?>
<!-- Generator: Adobe Illustrator 25.2.1, SVG Export Plug-In . SVG Version: 6.00 Build 0)  -->
<svg version="1.1" id="Layer_1" xmlns="http://www.w3.org/2000/svg" xmlns:xlink="http://www.w3.org/1999/xlink" x="0px" y="0px"
	 viewBox="0 0 14400 14400" style="enable-background:new 0 0 14400 14400;" xml:space="preserve">
<style type="text/css">
	.st0{fill:#161F32;}
	.st1{fill:#FF5773;}
</style>
<g>
	<g>
		<g>
			<path class="st0" d="M6359.98,5727.22l116.26-65.45l0,0v130.9L6359.98,5727.22z M6372.43,5727.22l97.69,55v-110L6372.43,5727.22
				L6372.43,5727.22z"/>
		</g>
		<g>
			<path class="st0" d="M6476.24,5727.22l-116.26,65.46l0,0v-130.91L6476.24,5727.22z M6463.78,5727.22l-97.69-55v110
				L6463.78,5727.22L6463.78,5727.22z"/>
		</g>
	</g>
	<polygon class="st1" points="6418.11,5834.03 6336.09,5688.34 6500.13,5688.34 	"/>
	<g>
		<path class="st0" d="M6418.11,5636.16l89.14,158.33l0,0h-178.28L6418.11,5636.16z M6418.11,5653.13l-74.91,133.04h149.81
			L6418.11,5653.13L6418.11,5653.13z"/>
	</g>
</g>
</svg>
